G04 Layer_Color=8421504*
%FSLAX25Y25*%
%MOIN*%
G70*
G01*
G75*
%ADD10R,0.11811X0.05906*%
%ADD11R,0.05906X0.11811*%
%ADD12R,0.05118X0.05906*%
%ADD13R,0.05906X0.05118*%
%ADD14R,0.03740X0.12598*%
%ADD15R,0.41339X0.32677*%
%ADD16O,0.02165X0.06890*%
%ADD17O,0.06890X0.02165*%
%ADD18R,0.03543X0.03740*%
%ADD19R,0.03543X0.03740*%
%ADD20R,0.05906X0.09449*%
%ADD21R,0.07000X0.07900*%
%ADD22R,0.03937X0.13386*%
D10*
X8858Y-163012D02*
D03*
X26575Y-158012D02*
D03*
X8858Y-153012D02*
D03*
X26575Y-148012D02*
D03*
X8858Y-130532D02*
D03*
X26575Y-125531D02*
D03*
X8858Y-120531D02*
D03*
X26575Y-115532D02*
D03*
D11*
X164075Y-187992D02*
D03*
X159075Y-170276D02*
D03*
X154075Y-187992D02*
D03*
X149075Y-170276D02*
D03*
X144075Y-187992D02*
D03*
X139075Y-170276D02*
D03*
X135453Y-68898D02*
D03*
X130453Y-51181D02*
D03*
X125453Y-68898D02*
D03*
X120453Y-51181D02*
D03*
X89862Y-170276D02*
D03*
X94862Y-187992D02*
D03*
X99862Y-170276D02*
D03*
X104862Y-187992D02*
D03*
X109862Y-170276D02*
D03*
X114862Y-187992D02*
D03*
X69587D02*
D03*
X64587Y-170276D02*
D03*
X59587Y-187992D02*
D03*
X54587Y-170276D02*
D03*
X49587Y-187992D02*
D03*
X44587Y-170276D02*
D03*
D12*
X34252Y-191929D02*
D03*
X26772D02*
D03*
X107087Y-77756D02*
D03*
X99606D02*
D03*
X191732Y-158465D02*
D03*
X184252D02*
D03*
X191732Y-150591D02*
D03*
X184252D02*
D03*
X191732Y-142717D02*
D03*
X184252D02*
D03*
X191732Y-134843D02*
D03*
X184252D02*
D03*
X191732Y-119095D02*
D03*
X184252D02*
D03*
X191732Y-111221D02*
D03*
X184252D02*
D03*
X191732Y-103347D02*
D03*
X184252D02*
D03*
X191732Y-95472D02*
D03*
X184252D02*
D03*
X191732Y-126969D02*
D03*
X184252D02*
D03*
X47933Y-32972D02*
D03*
X40453D02*
D03*
X45079Y-132874D02*
D03*
X37598D02*
D03*
Y-125000D02*
D03*
X45079D02*
D03*
X58858D02*
D03*
X51378D02*
D03*
X58858Y-110236D02*
D03*
X51378D02*
D03*
X45079Y-117126D02*
D03*
X37598D02*
D03*
X51378D02*
D03*
X58858D02*
D03*
X168504Y-126969D02*
D03*
X175984D02*
D03*
X175984Y-119095D02*
D03*
X168504D02*
D03*
Y-111221D02*
D03*
X175984D02*
D03*
Y-103347D02*
D03*
X168504D02*
D03*
X168504Y-158465D02*
D03*
X175984D02*
D03*
X175983Y-150589D02*
D03*
X168503D02*
D03*
X168504Y-142717D02*
D03*
X175984D02*
D03*
Y-134843D02*
D03*
X168504D02*
D03*
Y-95472D02*
D03*
X175984D02*
D03*
X40453Y-39862D02*
D03*
X47933D02*
D03*
X34252Y-175197D02*
D03*
X26772D02*
D03*
X45472Y-158465D02*
D03*
X52953D02*
D03*
X70079Y-72835D02*
D03*
X77559D02*
D03*
X97638Y-97441D02*
D03*
X105118D02*
D03*
D13*
X50197Y-95669D02*
D03*
Y-103150D02*
D03*
X98425Y-69685D02*
D03*
Y-62205D02*
D03*
X50000Y-60728D02*
D03*
Y-68209D02*
D03*
X33563Y-32283D02*
D03*
Y-39764D02*
D03*
X107283Y-69685D02*
D03*
Y-62205D02*
D03*
X50197Y-80905D02*
D03*
Y-88386D02*
D03*
X55118Y-145472D02*
D03*
Y-137992D02*
D03*
X62992D02*
D03*
Y-145472D02*
D03*
X26280Y-39665D02*
D03*
Y-32185D02*
D03*
X50000Y-46850D02*
D03*
Y-54331D02*
D03*
X135827Y-137598D02*
D03*
Y-130118D02*
D03*
X70866Y-130118D02*
D03*
Y-137598D02*
D03*
D14*
X39508Y-51673D02*
D03*
X34508D02*
D03*
X29508D02*
D03*
X24508D02*
D03*
X19508D02*
D03*
X14508D02*
D03*
X9508D02*
D03*
D15*
X24508Y-88878D02*
D03*
D16*
X87598Y-155118D02*
D03*
X90748D02*
D03*
X93898D02*
D03*
X97047D02*
D03*
X100197D02*
D03*
X103347D02*
D03*
X106496D02*
D03*
X109646D02*
D03*
X112795D02*
D03*
X115945D02*
D03*
X119095D02*
D03*
Y-110630D02*
D03*
X115945D02*
D03*
X112795D02*
D03*
X109646D02*
D03*
X106496D02*
D03*
X103347D02*
D03*
X100197D02*
D03*
X97047D02*
D03*
X93898D02*
D03*
X90748D02*
D03*
X87598D02*
D03*
D17*
X125591Y-148622D02*
D03*
Y-145472D02*
D03*
Y-142323D02*
D03*
Y-139173D02*
D03*
Y-136024D02*
D03*
Y-132874D02*
D03*
Y-129724D02*
D03*
Y-126575D02*
D03*
Y-123425D02*
D03*
Y-120276D02*
D03*
Y-117126D02*
D03*
X81102D02*
D03*
Y-120276D02*
D03*
Y-123425D02*
D03*
Y-126575D02*
D03*
Y-129724D02*
D03*
Y-132874D02*
D03*
Y-136024D02*
D03*
Y-139173D02*
D03*
Y-142323D02*
D03*
Y-145472D02*
D03*
Y-148622D02*
D03*
D18*
X102362Y-56102D02*
D03*
X106102Y-46260D02*
D03*
D19*
X98622Y-46260D02*
D03*
D20*
X19193Y-33563D02*
D03*
X4626D02*
D03*
D21*
X83661Y-98425D02*
D03*
Y-81925D02*
D03*
X63661Y-98425D02*
D03*
Y-81925D02*
D03*
D22*
X183071Y-50787D02*
D03*
Y-31890D02*
D03*
M02*
