G04 Layer_Color=8388736*
%FSLAX25Y25*%
%MOIN*%
G70*
G01*
G75*
%ADD50R,0.05918X0.06706*%
%ADD51R,0.04540X0.13398*%
%ADD52R,0.42139X0.33477*%
%ADD53O,0.02965X0.07690*%
%ADD54O,0.07690X0.02965*%
%ADD55R,0.06706X0.05918*%
%ADD56R,0.12611X0.06706*%
%ADD57R,0.06706X0.12611*%
%ADD58R,0.06706X0.10249*%
%ADD59R,0.07800X0.08700*%
%ADD60R,0.04737X0.14186*%
%ADD61R,0.04343X0.04540*%
%ADD62R,0.04343X0.04540*%
%ADD63C,0.07493*%
%ADD64R,0.07493X0.07493*%
%ADD65R,0.08280X0.08280*%
%ADD66C,0.08280*%
%ADD67R,0.08280X0.08280*%
%ADD68C,0.06800*%
%ADD69R,0.06800X0.06800*%
%ADD70C,0.06706*%
%ADD71R,0.06706X0.06706*%
%ADD72C,0.03753*%
%ADD73C,0.03162*%
%ADD74C,0.24422*%
D50*
X77559Y-72835D02*
D03*
X70079D02*
D03*
X40453Y-39862D02*
D03*
X47933D02*
D03*
X47933Y-32972D02*
D03*
X40453D02*
D03*
X34252Y-175197D02*
D03*
X26772D02*
D03*
X34252Y-191929D02*
D03*
X26772D02*
D03*
X107087Y-77756D02*
D03*
X99606D02*
D03*
X52953Y-158465D02*
D03*
X45472D02*
D03*
X105118Y-97441D02*
D03*
X97638D02*
D03*
X37598Y-117126D02*
D03*
X45079D02*
D03*
X51378D02*
D03*
X58858D02*
D03*
X58858Y-110236D02*
D03*
X51378D02*
D03*
X51378Y-125000D02*
D03*
X58858D02*
D03*
X37598D02*
D03*
X45079D02*
D03*
X37598Y-132874D02*
D03*
X45079D02*
D03*
X191732Y-158465D02*
D03*
X184252D02*
D03*
X191732Y-150591D02*
D03*
X184252D02*
D03*
X191732Y-142717D02*
D03*
X184252D02*
D03*
X191732Y-134843D02*
D03*
X184252D02*
D03*
X191732Y-119095D02*
D03*
X184252D02*
D03*
X191732Y-111221D02*
D03*
X184252D02*
D03*
X191732Y-103347D02*
D03*
X184252D02*
D03*
X191732Y-95472D02*
D03*
X184252D02*
D03*
X168504Y-158465D02*
D03*
X175984D02*
D03*
X168503Y-150589D02*
D03*
X175983D02*
D03*
X168504Y-142717D02*
D03*
X175984D02*
D03*
X168504Y-126969D02*
D03*
X175984D02*
D03*
X168504Y-119095D02*
D03*
X175984D02*
D03*
X168504Y-111221D02*
D03*
X175984D02*
D03*
X168504Y-103347D02*
D03*
X175984D02*
D03*
X168504Y-95472D02*
D03*
X175984D02*
D03*
X168504Y-134843D02*
D03*
X175984D02*
D03*
X191732Y-126969D02*
D03*
X184252D02*
D03*
D51*
X39508Y-51673D02*
D03*
X34508D02*
D03*
X29508D02*
D03*
X24508D02*
D03*
X19508D02*
D03*
X14508D02*
D03*
X9508D02*
D03*
D52*
X24508Y-88878D02*
D03*
D53*
X87598Y-155118D02*
D03*
X90748D02*
D03*
X93898D02*
D03*
X97047D02*
D03*
X100197D02*
D03*
X103347D02*
D03*
X106496D02*
D03*
X109646D02*
D03*
X112795D02*
D03*
X115945D02*
D03*
X119095D02*
D03*
Y-110630D02*
D03*
X115945D02*
D03*
X112795D02*
D03*
X109646D02*
D03*
X106496D02*
D03*
X103347D02*
D03*
X100197D02*
D03*
X97047D02*
D03*
X93898D02*
D03*
X90748D02*
D03*
X87598D02*
D03*
D54*
X125591Y-148622D02*
D03*
Y-145472D02*
D03*
Y-142323D02*
D03*
Y-139173D02*
D03*
Y-136024D02*
D03*
Y-132874D02*
D03*
Y-129724D02*
D03*
Y-126575D02*
D03*
Y-123425D02*
D03*
Y-120276D02*
D03*
Y-117126D02*
D03*
X81102D02*
D03*
Y-120276D02*
D03*
Y-123425D02*
D03*
Y-126575D02*
D03*
Y-129724D02*
D03*
Y-132874D02*
D03*
Y-136024D02*
D03*
Y-139173D02*
D03*
Y-142323D02*
D03*
Y-145472D02*
D03*
Y-148622D02*
D03*
D55*
X50000Y-68209D02*
D03*
Y-60728D02*
D03*
X33563Y-32283D02*
D03*
Y-39764D02*
D03*
X107283Y-62205D02*
D03*
Y-69685D02*
D03*
X55118Y-137992D02*
D03*
Y-145472D02*
D03*
X62992Y-137992D02*
D03*
Y-145472D02*
D03*
X50197Y-95669D02*
D03*
Y-103150D02*
D03*
X26280Y-39665D02*
D03*
Y-32185D02*
D03*
X50000Y-54331D02*
D03*
Y-46850D02*
D03*
X135827Y-130118D02*
D03*
Y-137598D02*
D03*
X70866Y-137598D02*
D03*
Y-130118D02*
D03*
X98425Y-69685D02*
D03*
Y-62205D02*
D03*
X50197Y-80905D02*
D03*
Y-88386D02*
D03*
D56*
X8858Y-130532D02*
D03*
X26575Y-125531D02*
D03*
X8858Y-120531D02*
D03*
X26575Y-115532D02*
D03*
X8858Y-163012D02*
D03*
X26575Y-158012D02*
D03*
X8858Y-153012D02*
D03*
X26575Y-148012D02*
D03*
D57*
X69587Y-187992D02*
D03*
X64587Y-170276D02*
D03*
X59587Y-187992D02*
D03*
X54587Y-170276D02*
D03*
X49587Y-187992D02*
D03*
X44587Y-170276D02*
D03*
X164075Y-187992D02*
D03*
X159075Y-170276D02*
D03*
X154075Y-187992D02*
D03*
X149075Y-170276D02*
D03*
X144075Y-187992D02*
D03*
X139075Y-170276D02*
D03*
X135453Y-68898D02*
D03*
X130453Y-51181D02*
D03*
X125453Y-68898D02*
D03*
X120453Y-51181D02*
D03*
X89862Y-170276D02*
D03*
X94862Y-187992D02*
D03*
X99862Y-170276D02*
D03*
X104862Y-187992D02*
D03*
X109862Y-170276D02*
D03*
X114862Y-187992D02*
D03*
D58*
X19193Y-33563D02*
D03*
X4626D02*
D03*
D59*
X83661Y-98425D02*
D03*
Y-81925D02*
D03*
X63661Y-98425D02*
D03*
Y-81925D02*
D03*
D60*
X183071Y-50787D02*
D03*
Y-31890D02*
D03*
D61*
X102362Y-56102D02*
D03*
X106102Y-46260D02*
D03*
D62*
X98622Y-46260D02*
D03*
D63*
X145276Y-17559D02*
D03*
X151969Y-37559D02*
D03*
X158661Y-17559D02*
D03*
X165354Y-37559D02*
D03*
X105118Y-17559D02*
D03*
X111811Y-37559D02*
D03*
X118504Y-17559D02*
D03*
X125197Y-37559D02*
D03*
X131890Y-17559D02*
D03*
X138583Y-37559D02*
D03*
D64*
X98425D02*
D03*
D65*
X67422Y-11220D02*
D03*
X33957Y-11319D02*
D03*
D66*
X81200Y-11220D02*
D03*
X47736Y-11319D02*
D03*
X184055Y-81693D02*
D03*
D67*
Y-67914D02*
D03*
D68*
X83563Y-49409D02*
D03*
D69*
X63878D02*
D03*
D70*
X151575Y-154331D02*
D03*
Y-144331D02*
D03*
Y-134331D02*
D03*
Y-124331D02*
D03*
Y-114331D02*
D03*
D71*
Y-104331D02*
D03*
D72*
X90551Y-46260D02*
D03*
X153543Y-174213D02*
D03*
X5906Y-76772D02*
D03*
Y-82677D02*
D03*
Y-88583D02*
D03*
Y-94488D02*
D03*
Y-100394D02*
D03*
X11811D02*
D03*
Y-94488D02*
D03*
Y-88583D02*
D03*
Y-82677D02*
D03*
Y-76772D02*
D03*
X17717D02*
D03*
Y-82677D02*
D03*
Y-88583D02*
D03*
Y-94488D02*
D03*
Y-100394D02*
D03*
X23622D02*
D03*
Y-94488D02*
D03*
Y-88583D02*
D03*
Y-82677D02*
D03*
Y-76772D02*
D03*
X29528D02*
D03*
Y-82677D02*
D03*
Y-88583D02*
D03*
Y-94488D02*
D03*
Y-100394D02*
D03*
X35433D02*
D03*
Y-94488D02*
D03*
Y-88583D02*
D03*
Y-82677D02*
D03*
X41339Y-100394D02*
D03*
Y-94488D02*
D03*
Y-88583D02*
D03*
Y-82677D02*
D03*
X191732Y-164173D02*
D03*
Y-89764D02*
D03*
X144193Y-96949D02*
D03*
Y-131890D02*
D03*
X55118Y-41339D02*
D03*
X64961Y-173228D02*
D03*
X60039Y-185039D02*
D03*
X34646D02*
D03*
Y-178150D02*
D03*
X50197Y-179133D02*
D03*
X139764Y-188779D02*
D03*
X103150Y-136024D02*
D03*
X58071Y-104331D02*
D03*
X98425Y-69685D02*
D03*
X129921Y-48720D02*
D03*
X106299Y-104331D02*
D03*
X114173Y-83661D02*
D03*
X141732Y-137795D02*
D03*
X133071Y-167520D02*
D03*
X120079Y-129921D02*
D03*
X64764Y-130118D02*
D03*
X39370Y-158465D02*
D03*
X37402Y-138779D02*
D03*
X8858Y-113189D02*
D03*
X26575Y-122047D02*
D03*
X63661Y-89252D02*
D03*
X97638Y-91732D02*
D03*
X77756Y-66929D02*
D03*
X8858Y-145669D02*
D03*
X50197Y-74803D02*
D03*
X95472Y-77756D02*
D03*
X114173Y-68898D02*
D03*
D73*
X84646Y-170276D02*
D03*
X102362Y-161417D02*
D03*
X98130D02*
D03*
X93898D02*
D03*
X114862Y-184153D02*
D03*
X104705Y-184252D02*
D03*
X94488Y-184252D02*
D03*
X108268Y-149606D02*
D03*
X100394D02*
D03*
X29528Y-60532D02*
D03*
D74*
X11811Y-11811D02*
D03*
X185039D02*
D03*
Y-185039D02*
D03*
X11811D02*
D03*
M02*
