G04 Layer_Color=128*
%FSLAX25Y25*%
%MOIN*%
G70*
G01*
G75*
%ADD10R,0.05118X0.05906*%
%ADD15R,0.05906X0.05118*%
%ADD39R,0.12992X0.09449*%
%ADD40R,0.03937X0.09449*%
%ADD41R,0.09449X0.12992*%
%ADD42R,0.09449X0.03937*%
%ADD43R,0.06299X0.07087*%
%ADD44R,0.02362X0.03347*%
D10*
X69980Y-40551D02*
D03*
X77461D02*
D03*
X80512Y-84547D02*
D03*
X73032D02*
D03*
X46752Y-40748D02*
D03*
X39272D02*
D03*
X33465Y-29035D02*
D03*
X40945D02*
D03*
X14961Y-113189D02*
D03*
X22441D02*
D03*
X108071Y-144685D02*
D03*
X100591D02*
D03*
X34646Y-178150D02*
D03*
X42126D02*
D03*
X34646Y-185039D02*
D03*
X42126D02*
D03*
D15*
X20866Y-65158D02*
D03*
Y-57677D02*
D03*
X56299Y-62598D02*
D03*
Y-70079D02*
D03*
X98425Y-22835D02*
D03*
Y-30315D02*
D03*
X165354Y-22835D02*
D03*
Y-30315D02*
D03*
X131890Y-24803D02*
D03*
Y-32283D02*
D03*
X91535Y-53937D02*
D03*
Y-46457D02*
D03*
X113189Y-53937D02*
D03*
Y-46457D02*
D03*
X121063Y-46457D02*
D03*
Y-53937D02*
D03*
X136811Y-68701D02*
D03*
Y-61221D02*
D03*
X136811Y-83465D02*
D03*
Y-75984D02*
D03*
Y-53937D02*
D03*
Y-46457D02*
D03*
X128937Y-61221D02*
D03*
Y-68701D02*
D03*
X121063Y-68701D02*
D03*
Y-61221D02*
D03*
X128937Y-83465D02*
D03*
Y-75984D02*
D03*
Y-46457D02*
D03*
Y-53937D02*
D03*
X144685Y-75984D02*
D03*
Y-83464D02*
D03*
X121063Y-75984D02*
D03*
Y-83464D02*
D03*
X98425Y-62205D02*
D03*
Y-69685D02*
D03*
X139764Y-167520D02*
D03*
Y-175000D02*
D03*
X147638Y-175000D02*
D03*
Y-167520D02*
D03*
X139764Y-188779D02*
D03*
Y-181299D02*
D03*
X104705Y-191732D02*
D03*
Y-184252D02*
D03*
X94488Y-191732D02*
D03*
Y-184252D02*
D03*
X114862Y-191634D02*
D03*
Y-184153D02*
D03*
X104705Y-169488D02*
D03*
Y-176969D02*
D03*
X94488Y-169488D02*
D03*
Y-176969D02*
D03*
X114862Y-169390D02*
D03*
Y-176870D02*
D03*
D39*
X38681Y-73130D02*
D03*
D40*
X47736Y-50295D02*
D03*
X38681D02*
D03*
X29626D02*
D03*
D41*
X88287Y-66535D02*
D03*
D42*
X65453Y-57480D02*
D03*
Y-66535D02*
D03*
Y-75590D02*
D03*
D43*
X33563Y-20571D02*
D03*
X44587D02*
D03*
D44*
X98622Y-45965D02*
D03*
X106102D02*
D03*
X102362Y-54429D02*
D03*
M02*
