G04 Layer_Physical_Order=1*
G04 Layer_Color=255*
%FSLAX25Y25*%
%MOIN*%
G70*
G01*
G75*
%ADD10R,0.11811X0.05906*%
%ADD11R,0.05906X0.11811*%
%ADD12R,0.05118X0.05906*%
%ADD13R,0.05906X0.05118*%
%ADD14R,0.03740X0.12598*%
%ADD15R,0.41339X0.32677*%
%ADD16O,0.02165X0.06890*%
%ADD17O,0.06890X0.02165*%
%ADD18R,0.03543X0.03740*%
%ADD19R,0.03543X0.03740*%
%ADD20R,0.05906X0.09449*%
%ADD21R,0.07000X0.07900*%
%ADD22R,0.03937X0.13386*%
%ADD23C,0.00787*%
%ADD24C,0.01969*%
%ADD25C,0.01772*%
%ADD26C,0.01181*%
%ADD27R,0.07480X0.07480*%
%ADD28C,0.07480*%
%ADD29R,0.07480X0.07480*%
%ADD30C,0.06693*%
%ADD31R,0.06693X0.06693*%
%ADD32C,0.06000*%
%ADD33R,0.06000X0.06000*%
%ADD34C,0.05906*%
%ADD35R,0.05906X0.05906*%
%ADD36C,0.02953*%
%ADD37C,0.02362*%
%ADD38C,0.23622*%
D10*
X8858Y-163012D02*
D03*
X26575Y-158012D02*
D03*
X8858Y-153012D02*
D03*
X26575Y-148012D02*
D03*
X8858Y-130532D02*
D03*
X26575Y-125531D02*
D03*
X8858Y-120531D02*
D03*
X26575Y-115532D02*
D03*
D11*
X164075Y-187992D02*
D03*
X159075Y-170276D02*
D03*
X154075Y-187992D02*
D03*
X149075Y-170276D02*
D03*
X144075Y-187992D02*
D03*
X139075Y-170276D02*
D03*
X135453Y-68898D02*
D03*
X130453Y-51181D02*
D03*
X125453Y-68898D02*
D03*
X120453Y-51181D02*
D03*
X89862Y-170276D02*
D03*
X94862Y-187992D02*
D03*
X99862Y-170276D02*
D03*
X104862Y-187992D02*
D03*
X109862Y-170276D02*
D03*
X114862Y-187992D02*
D03*
X69587D02*
D03*
X64587Y-170276D02*
D03*
X59587Y-187992D02*
D03*
X54587Y-170276D02*
D03*
X49587Y-187992D02*
D03*
X44587Y-170276D02*
D03*
D12*
X34252Y-191929D02*
D03*
X26772D02*
D03*
X107087Y-77756D02*
D03*
X99606D02*
D03*
X191732Y-158465D02*
D03*
X184252D02*
D03*
X191732Y-150591D02*
D03*
X184252D02*
D03*
X191732Y-142717D02*
D03*
X184252D02*
D03*
X191732Y-134843D02*
D03*
X184252D02*
D03*
X191732Y-119095D02*
D03*
X184252D02*
D03*
X191732Y-111221D02*
D03*
X184252D02*
D03*
X191732Y-103347D02*
D03*
X184252D02*
D03*
X191732Y-95472D02*
D03*
X184252D02*
D03*
X191732Y-126969D02*
D03*
X184252D02*
D03*
X47933Y-32972D02*
D03*
X40453D02*
D03*
X45079Y-132874D02*
D03*
X37598D02*
D03*
Y-125000D02*
D03*
X45079D02*
D03*
X58858D02*
D03*
X51378D02*
D03*
X58858Y-110236D02*
D03*
X51378D02*
D03*
X45079Y-117126D02*
D03*
X37598D02*
D03*
X51378D02*
D03*
X58858D02*
D03*
X168504Y-126969D02*
D03*
X175984D02*
D03*
X175984Y-119095D02*
D03*
X168504D02*
D03*
Y-111221D02*
D03*
X175984D02*
D03*
Y-103347D02*
D03*
X168504D02*
D03*
X168504Y-158465D02*
D03*
X175984D02*
D03*
X175983Y-150589D02*
D03*
X168503D02*
D03*
X168504Y-142717D02*
D03*
X175984D02*
D03*
Y-134843D02*
D03*
X168504D02*
D03*
Y-95472D02*
D03*
X175984D02*
D03*
X40453Y-39862D02*
D03*
X47933D02*
D03*
X34252Y-175197D02*
D03*
X26772D02*
D03*
X45472Y-158465D02*
D03*
X52953D02*
D03*
X70079Y-72835D02*
D03*
X77559D02*
D03*
X97638Y-97441D02*
D03*
X105118D02*
D03*
D13*
X50197Y-95669D02*
D03*
Y-103150D02*
D03*
X98425Y-69685D02*
D03*
Y-62205D02*
D03*
X50000Y-60728D02*
D03*
Y-68209D02*
D03*
X33563Y-32283D02*
D03*
Y-39764D02*
D03*
X107283Y-69685D02*
D03*
Y-62205D02*
D03*
X50197Y-80905D02*
D03*
Y-88386D02*
D03*
X55118Y-145472D02*
D03*
Y-137992D02*
D03*
X62992D02*
D03*
Y-145472D02*
D03*
X26280Y-39665D02*
D03*
Y-32185D02*
D03*
X50000Y-46850D02*
D03*
Y-54331D02*
D03*
X135827Y-137598D02*
D03*
Y-130118D02*
D03*
X70866Y-130118D02*
D03*
Y-137598D02*
D03*
D14*
X39508Y-51673D02*
D03*
X34508D02*
D03*
X29508D02*
D03*
X24508D02*
D03*
X19508D02*
D03*
X14508D02*
D03*
X9508D02*
D03*
D15*
X24508Y-88878D02*
D03*
D16*
X87598Y-155118D02*
D03*
X90748D02*
D03*
X93898D02*
D03*
X97047D02*
D03*
X100197D02*
D03*
X103347D02*
D03*
X106496D02*
D03*
X109646D02*
D03*
X112795D02*
D03*
X115945D02*
D03*
X119095D02*
D03*
Y-110630D02*
D03*
X115945D02*
D03*
X112795D02*
D03*
X109646D02*
D03*
X106496D02*
D03*
X103347D02*
D03*
X100197D02*
D03*
X97047D02*
D03*
X93898D02*
D03*
X90748D02*
D03*
X87598D02*
D03*
D17*
X125591Y-148622D02*
D03*
Y-145472D02*
D03*
Y-142323D02*
D03*
Y-139173D02*
D03*
Y-136024D02*
D03*
Y-132874D02*
D03*
Y-129724D02*
D03*
Y-126575D02*
D03*
Y-123425D02*
D03*
Y-120276D02*
D03*
Y-117126D02*
D03*
X81102D02*
D03*
Y-120276D02*
D03*
Y-123425D02*
D03*
Y-126575D02*
D03*
Y-129724D02*
D03*
Y-132874D02*
D03*
Y-136024D02*
D03*
Y-139173D02*
D03*
Y-142323D02*
D03*
Y-145472D02*
D03*
Y-148622D02*
D03*
D18*
X102362Y-56102D02*
D03*
X106102Y-46260D02*
D03*
D19*
X98622Y-46260D02*
D03*
D20*
X19193Y-33563D02*
D03*
X4626D02*
D03*
D21*
X83661Y-98425D02*
D03*
Y-81925D02*
D03*
X63661Y-98425D02*
D03*
Y-81925D02*
D03*
D22*
X183071Y-50787D02*
D03*
Y-31890D02*
D03*
D23*
X37402Y-138779D02*
Y-133071D01*
X158308Y-140394D02*
X168503Y-150589D01*
X148460Y-140394D02*
X158308D01*
X90551Y-46260D02*
X98622D01*
X90551Y-46260D02*
X90551Y-46260D01*
X117028Y-159547D02*
X167421D01*
X149075Y-174213D02*
X153543D01*
X149075D02*
Y-170276D01*
X131890Y-179134D02*
X157480D01*
X154075Y-187992D02*
Y-181634D01*
X152953Y-180512D02*
X154075Y-181634D01*
X131116Y-180512D02*
X152953D01*
X157480Y-179134D02*
X159075Y-177539D01*
X109646Y-159041D02*
X131116Y-180512D01*
X112795Y-160039D02*
X131890Y-179134D01*
X112795Y-160039D02*
Y-155118D01*
X107283Y-62205D02*
Y-58071D01*
X105315Y-56102D02*
X107283Y-58071D01*
X102362Y-56102D02*
X105315D01*
X130079Y-37559D02*
X144193Y-51673D01*
X125197Y-37559D02*
X130079D01*
X144193Y-96949D02*
Y-51673D01*
X131845Y-42323D02*
X140748Y-51226D01*
Y-75787D02*
Y-51226D01*
X137795Y-78740D02*
X140748Y-75787D01*
X125000Y-78740D02*
X137795D01*
X112795Y-90945D02*
X125000Y-78740D01*
X112795Y-110630D02*
Y-90945D01*
X162205Y-109646D02*
X168504Y-103347D01*
X142323Y-109646D02*
X162205D01*
X141339Y-110630D02*
X142323Y-109646D01*
X155709Y-108268D02*
X168504Y-95472D01*
X141752Y-108268D02*
X155709D01*
X140768Y-109252D02*
X141752Y-108268D01*
X119095Y-110630D02*
X141339D01*
X160827Y-118898D02*
X168504Y-111221D01*
X129498Y-118898D02*
X160827D01*
X127726Y-117126D02*
X129498Y-118898D01*
X125591Y-117126D02*
X127726D01*
X125591Y-120276D02*
X167323D01*
X168504Y-119095D01*
X162402Y-126969D02*
X168504D01*
X161102Y-128268D02*
X162402Y-126969D01*
X147638Y-128268D02*
X161102D01*
X142795Y-123425D02*
X147638Y-128268D01*
X125591Y-123425D02*
X142795D01*
X162402Y-134843D02*
X168504D01*
X157463Y-129904D02*
X162402Y-134843D01*
X145687Y-129904D02*
X157463D01*
X142358Y-126575D02*
X145687Y-129904D01*
X125591Y-126575D02*
X142358D01*
X151102Y-133858D02*
X151575Y-134331D01*
X147638Y-133858D02*
X151102D01*
X145571Y-135925D02*
X147638Y-133858D01*
X145571Y-139385D02*
Y-135925D01*
X142436Y-142520D02*
X145571Y-139385D01*
X125787Y-142520D02*
X142436D01*
X125591Y-142323D02*
X125787Y-142520D01*
X141432Y-145472D02*
X147889Y-139016D01*
X164803D01*
X125591Y-145472D02*
X141432D01*
X140232Y-148622D02*
X148460Y-140394D01*
X125591Y-148622D02*
X140232D01*
X119095Y-155118D02*
X140787D01*
X151575Y-144331D01*
X144193Y-138814D02*
Y-131890D01*
X141866Y-141142D02*
X144193Y-138814D01*
X131299Y-141142D02*
X141866D01*
X164803Y-139016D02*
X168504Y-142717D01*
X84646Y-170276D02*
X84646Y-170276D01*
X89862D01*
X99862D01*
X109862D01*
X109862Y-170276D02*
X109862Y-170276D01*
X105315Y-170276D02*
X109862D01*
X105315D02*
Y-161308D01*
X103347Y-159339D02*
X105315Y-161308D01*
X103347Y-159339D02*
Y-155118D01*
X100197Y-159252D02*
X102362Y-161417D01*
X100197Y-159252D02*
Y-155118D01*
X97047Y-160335D02*
X98130Y-161417D01*
X97047Y-160335D02*
Y-155118D01*
X93898Y-161417D02*
Y-155118D01*
X90748Y-159140D02*
Y-155118D01*
X68602Y-181285D02*
X90748Y-159140D01*
X87598Y-160340D02*
Y-155118D01*
X69789Y-178150D02*
X87598Y-160340D01*
X60118Y-178150D02*
X69789D01*
X68602Y-187992D02*
Y-181285D01*
X191732Y-95472D02*
Y-89764D01*
Y-126969D02*
Y-95472D01*
Y-164173D02*
Y-158465D01*
Y-134843D02*
Y-126969D01*
Y-142717D02*
Y-134843D01*
Y-150591D02*
Y-142717D01*
Y-158465D02*
Y-150591D01*
X175984Y-158465D02*
X184252D01*
X184250Y-150589D02*
X184252Y-150591D01*
X175983Y-150589D02*
X184250D01*
X175984Y-142717D02*
X184252D01*
X175984Y-134843D02*
X184252D01*
X175984Y-126969D02*
X184252D01*
X175984Y-119095D02*
X184252D01*
X184252Y-111221D02*
X184252Y-111221D01*
X175984Y-111221D02*
X184252D01*
X175984Y-103347D02*
X184252D01*
X175984Y-95472D02*
X184252D01*
X124016Y-109252D02*
X140768D01*
X120965Y-106201D02*
X124016Y-109252D01*
X117028Y-106201D02*
X120965D01*
X115945Y-107283D02*
X117028Y-106201D01*
X115945Y-110630D02*
Y-107283D01*
Y-158465D02*
X117028Y-159547D01*
X115945Y-158465D02*
Y-155118D01*
X129331Y-139173D02*
X131299Y-141142D01*
X48031Y-41142D02*
X54921D01*
X47933Y-41043D02*
X48031Y-41142D01*
X47933Y-41043D02*
Y-39862D01*
X54921Y-41142D02*
X55118Y-41339D01*
X167421Y-159547D02*
X168504Y-158465D01*
X45472Y-168405D02*
Y-158465D01*
X29429Y-168405D02*
X45472D01*
X26772Y-171063D02*
X29429Y-168405D01*
X26772Y-191929D02*
Y-171063D01*
X58602Y-187992D02*
Y-179665D01*
X34646Y-191535D02*
Y-185039D01*
X52953Y-158465D02*
X54134Y-159646D01*
Y-175196D02*
Y-159646D01*
X50197Y-179133D02*
X54134Y-175196D01*
X59665Y-176772D02*
Y-160807D01*
X59547Y-176772D02*
X59665D01*
X57224Y-179095D02*
X59547Y-176772D01*
X57224Y-179370D02*
Y-179095D01*
X48602Y-187992D02*
X57224Y-179370D01*
X143287Y-188779D02*
X144075Y-187992D01*
X139764Y-188779D02*
X143287D01*
X103347Y-135827D02*
Y-132874D01*
X103150Y-136024D02*
X103347Y-135827D01*
X81102Y-136024D02*
X103150D01*
X58071Y-109449D02*
Y-104331D01*
Y-109449D02*
X58858Y-110236D01*
X50197Y-103150D02*
X51378Y-104331D01*
X58071D01*
X106496Y-151378D02*
X108268Y-149606D01*
X106496Y-155118D02*
Y-151378D01*
X100394Y-149606D02*
X103347Y-152559D01*
Y-155118D02*
Y-152559D01*
X58602Y-179665D02*
X60118Y-178150D01*
X116575Y-42323D02*
X131845D01*
X111811Y-37559D02*
X116575Y-42323D01*
X125591Y-139173D02*
X129331D01*
X106299Y-110433D02*
X106496Y-110630D01*
X106299Y-110433D02*
Y-104331D01*
X105118Y-101575D02*
Y-99410D01*
X103347Y-103347D02*
X105118Y-101575D01*
X103347Y-110630D02*
Y-103347D01*
X100197Y-110630D02*
Y-104134D01*
X97638Y-101575D02*
X100197Y-104134D01*
X97638Y-101575D02*
Y-99410D01*
X105315Y-97441D02*
Y-92520D01*
X101378Y-88583D02*
X105315Y-92520D01*
X83661Y-88583D02*
X101378D01*
X83661D02*
Y-83894D01*
X109646Y-110630D02*
Y-88189D01*
X114173Y-83661D01*
X141535Y-137598D02*
X141732Y-137795D01*
X135827Y-137598D02*
X141535D01*
X136319Y-167520D02*
X139075Y-170276D01*
X133071Y-167520D02*
X136319D01*
X120079Y-129921D02*
X120276Y-129724D01*
X125591D01*
X103347Y-132874D02*
X125591D01*
X103347Y-132874D02*
X103347Y-132874D01*
X131890Y-130905D02*
X135039D01*
X129921Y-132874D02*
X131890Y-130905D01*
X135039D02*
X135827Y-130118D01*
X125591Y-132874D02*
X129921D01*
X64764Y-130118D02*
X70866D01*
X39370Y-158465D02*
X45472D01*
X21654Y-141732D02*
X62992D01*
X18701Y-144685D02*
X21654Y-141732D01*
X18701Y-153543D02*
Y-144685D01*
Y-153543D02*
X23169Y-158012D01*
X8858Y-120531D02*
Y-113189D01*
X58858Y-117126D02*
X63976D01*
X70473Y-123622D01*
X74390D01*
X76181Y-125414D01*
Y-126104D02*
Y-125414D01*
Y-126104D02*
X76652Y-126575D01*
X81102D01*
X74803Y-127875D02*
X76652Y-129724D01*
X74803Y-127875D02*
Y-125984D01*
X58858Y-125000D02*
X73819D01*
X74803Y-125984D01*
X76652Y-129724D02*
X81102D01*
X51378Y-117126D02*
X51378Y-117126D01*
Y-110236D01*
X26575Y-115532D02*
X28169Y-117126D01*
X37598D01*
X45079D02*
X51378D01*
X45079Y-125000D02*
X51378D01*
X45079Y-132874D02*
Y-125000D01*
X8858Y-130532D02*
X32067D01*
X37598Y-125000D01*
X55118Y-149016D02*
X68858D01*
X27579D02*
X55118D01*
Y-145472D01*
X62992Y-141732D02*
X73636D01*
X62992Y-145472D02*
Y-141732D01*
X55512Y-137598D02*
X70866D01*
X55118Y-137992D02*
X55512Y-137598D01*
X68858Y-149016D02*
X75551Y-142323D01*
X26575Y-148012D02*
X27579Y-149016D01*
X73636Y-141732D02*
X76195Y-139173D01*
X103347Y-132874D02*
Y-110630D01*
X63661Y-89252D02*
Y-81925D01*
X97638Y-97441D02*
Y-91732D01*
X83661Y-98425D02*
Y-88583D01*
Y-100394D02*
Y-98425D01*
X65945Y-73819D02*
X70079D01*
X63661Y-76102D02*
X65945Y-73819D01*
X63661Y-81925D02*
Y-76102D01*
X83661Y-81925D02*
Y-75787D01*
X81693Y-73819D02*
X83661Y-75787D01*
X77559Y-73819D02*
X81693D01*
X63661Y-98425D02*
X68898D01*
X74803Y-104331D01*
X94488D01*
X97047Y-106890D01*
Y-110630D02*
Y-106890D01*
X131693Y-137598D02*
X135827D01*
X129921Y-135827D02*
X131693Y-137598D01*
X125787Y-135827D02*
X129921D01*
X125591Y-136024D02*
X125787Y-135827D01*
X109646Y-159041D02*
Y-155118D01*
X159075Y-177539D02*
Y-170276D01*
X63602D02*
Y-159823D01*
X74803Y-148622D01*
X81102D01*
X75000Y-145472D02*
X81102D01*
X59665Y-160807D02*
X75000Y-145472D01*
X8858Y-153012D02*
Y-145669D01*
Y-163012D02*
Y-153012D01*
X70866Y-137598D02*
X75000D01*
X76575Y-136024D01*
X81102D01*
X75787Y-132874D02*
X81102D01*
X73032Y-130118D02*
X75787Y-132874D01*
X70866Y-130118D02*
X73032D01*
X23169Y-158012D02*
X26575D01*
X76195Y-139173D02*
X81102D01*
X75551Y-142323D02*
X81102D01*
X50197Y-80905D02*
Y-74803D01*
X95472Y-77756D02*
X99606D01*
X103346Y-74016D01*
Y-64960D01*
X100591Y-62205D02*
X103346Y-64960D01*
X98425Y-62205D02*
X100591D01*
X107087Y-77756D02*
X107283Y-77559D01*
Y-69685D01*
X34508Y-63346D02*
Y-51673D01*
Y-63346D02*
X39370Y-68209D01*
X50000D01*
Y-60728D02*
Y-54331D01*
Y-46850D02*
X52165Y-44685D01*
Y-41142D01*
X40354Y-39764D02*
X40453Y-39862D01*
X33563Y-39764D02*
X40354D01*
X31988Y-43996D02*
X32776Y-43209D01*
X29921Y-43996D02*
X31988D01*
X29508Y-51673D02*
Y-44409D01*
X29921Y-43996D01*
X32776Y-43209D02*
Y-40551D01*
X33563Y-39764D01*
X25492Y-60532D02*
X29528D01*
X24508Y-59547D02*
X25492Y-60532D01*
X24508Y-59547D02*
Y-51673D01*
D24*
X97579Y-27598D02*
X128622D01*
X81200Y-11220D02*
X97579Y-27598D01*
X182677Y-51181D02*
X183071Y-50787D01*
X152205Y-51181D02*
X182677D01*
X138583Y-37559D02*
X152205Y-51181D01*
X183071Y-50787D02*
X183661Y-50197D01*
X157587Y-5906D02*
X183071Y-31390D01*
X128622Y-27598D02*
X138583Y-37559D01*
X131890Y-5906D02*
X157587D01*
X72737D02*
X131890D01*
X67422Y-11220D02*
X72737Y-5906D01*
X131890Y-17559D02*
Y-5906D01*
X131890Y-5906D02*
X131890Y-5906D01*
X47933Y-32972D02*
X54429D01*
X63878Y-42421D01*
Y-49409D02*
Y-42421D01*
D25*
X184055Y-67914D02*
Y-62008D01*
X186675Y-59388D01*
Y-43642D01*
X105118Y-17559D02*
X112165Y-24606D01*
X161417D01*
X158661Y-18230D02*
X180688Y-40256D01*
X189370Y-76378D02*
Y-42997D01*
X186629Y-40256D02*
X189370Y-42997D01*
X180688Y-40256D02*
X186629D01*
X161417Y-24606D02*
X179429Y-42618D01*
X180491D01*
X180491Y-42618D01*
X185651D01*
X186675Y-43642D01*
X184055Y-81693D02*
X189370Y-76378D01*
D26*
X115532Y-46260D02*
X120453Y-51181D01*
X106102Y-46260D02*
X115532D01*
X77756Y-73622D02*
Y-66929D01*
X50197Y-95669D02*
Y-88386D01*
X98622Y-69882D02*
X98622Y-69882D01*
X98425Y-69685D02*
X98622Y-69882D01*
X114173Y-68898D02*
X125453D01*
X135453D01*
X63878Y-49409D02*
X70079D01*
X76772Y-56102D01*
X102362D01*
X24803Y-25886D02*
X33957Y-16732D01*
X6791Y-25886D02*
X24803D01*
X4921Y-27756D02*
X6791Y-25886D01*
X33957Y-16732D02*
Y-11319D01*
X19193Y-39469D02*
Y-33563D01*
Y-42323D02*
Y-39469D01*
X19390Y-39665D01*
X26280D01*
X34252Y-32972D02*
X40453D01*
X33563Y-32283D02*
X34252Y-32972D01*
X33465Y-32185D02*
X33563Y-32283D01*
X26280Y-32185D02*
X33465D01*
X19783Y-51398D02*
Y-42913D01*
X19193Y-42323D02*
X19783Y-42913D01*
X4921Y-33858D02*
Y-27756D01*
X9508Y-51673D02*
X9547Y-51634D01*
Y-42717D01*
X4626Y-37795D02*
X9547Y-42717D01*
X4626Y-37795D02*
Y-33563D01*
X4921Y-33858D01*
D27*
X67422Y-11220D02*
D03*
X33957Y-11319D02*
D03*
D28*
X81200Y-11220D02*
D03*
X184055Y-81693D02*
D03*
X47736Y-11319D02*
D03*
D29*
X184055Y-67914D02*
D03*
D30*
X145276Y-17559D02*
D03*
X151969Y-37559D02*
D03*
X158661Y-17559D02*
D03*
X165354Y-37559D02*
D03*
X105118Y-17559D02*
D03*
X111811Y-37559D02*
D03*
X118504Y-17559D02*
D03*
X125197Y-37559D02*
D03*
X131890Y-17559D02*
D03*
X138583Y-37559D02*
D03*
D31*
X98425D02*
D03*
D32*
X83563Y-49409D02*
D03*
D33*
X63878D02*
D03*
D34*
X151575Y-154331D02*
D03*
Y-144331D02*
D03*
Y-134331D02*
D03*
Y-124331D02*
D03*
Y-114331D02*
D03*
D35*
Y-104331D02*
D03*
D36*
X90551Y-46260D02*
D03*
X153543Y-174213D02*
D03*
X5906Y-76772D02*
D03*
Y-82677D02*
D03*
Y-88583D02*
D03*
Y-94488D02*
D03*
Y-100394D02*
D03*
X11811D02*
D03*
Y-94488D02*
D03*
Y-88583D02*
D03*
Y-82677D02*
D03*
Y-76772D02*
D03*
X17717D02*
D03*
Y-82677D02*
D03*
Y-88583D02*
D03*
Y-94488D02*
D03*
Y-100394D02*
D03*
X23622D02*
D03*
Y-94488D02*
D03*
Y-88583D02*
D03*
Y-82677D02*
D03*
Y-76772D02*
D03*
X29528D02*
D03*
Y-82677D02*
D03*
Y-88583D02*
D03*
Y-94488D02*
D03*
Y-100394D02*
D03*
X35433D02*
D03*
Y-94488D02*
D03*
Y-88583D02*
D03*
Y-82677D02*
D03*
X41339Y-100394D02*
D03*
Y-94488D02*
D03*
Y-88583D02*
D03*
Y-82677D02*
D03*
X191732Y-164173D02*
D03*
Y-89764D02*
D03*
X144193Y-96949D02*
D03*
Y-131890D02*
D03*
X55118Y-41339D02*
D03*
X64961Y-173228D02*
D03*
X60039Y-185039D02*
D03*
X34646D02*
D03*
Y-178150D02*
D03*
X50197Y-179133D02*
D03*
X139764Y-188779D02*
D03*
X103150Y-136024D02*
D03*
X58071Y-104331D02*
D03*
X98425Y-69685D02*
D03*
X129921Y-48720D02*
D03*
X106299Y-104331D02*
D03*
X114173Y-83661D02*
D03*
X141732Y-137795D02*
D03*
X133071Y-167520D02*
D03*
X120079Y-129921D02*
D03*
X64764Y-130118D02*
D03*
X39370Y-158465D02*
D03*
X37402Y-138779D02*
D03*
X8858Y-113189D02*
D03*
X26575Y-122047D02*
D03*
X63661Y-89252D02*
D03*
X97638Y-91732D02*
D03*
X77756Y-66929D02*
D03*
X8858Y-145669D02*
D03*
X50197Y-74803D02*
D03*
X95472Y-77756D02*
D03*
X114173Y-68898D02*
D03*
D37*
X84646Y-170276D02*
D03*
X102362Y-161417D02*
D03*
X98130D02*
D03*
X93898D02*
D03*
X114862Y-184153D02*
D03*
X104705Y-184252D02*
D03*
X94488Y-184252D02*
D03*
X108268Y-149606D02*
D03*
X100394D02*
D03*
X29528Y-60532D02*
D03*
D38*
X11811Y-11811D02*
D03*
X185039D02*
D03*
Y-185039D02*
D03*
X11811D02*
D03*
M02*
