M48
;Layer_Color=9474304
;FILE_FORMAT=2:5
INCH,LZ
;TYPE=PLATED
T1F00S00C0.01181
T2F00S00C0.03150
T3F00S00C0.03543
T4F00S00C0.04331
T5F00S00C0.05512
T6F00S00C0.12205
%
T01
X0114862Y-0184153
X0139764Y-0188779
X0133071Y-016752
X0153543Y-0174213
X0191732Y-0164173
X0104705Y-0184252
X0094488Y-0184252
X0084646Y-0170276
X0064961Y-0173228
X0060039Y-0185039
X0050197Y-0179133
X0034646Y-017815
Y-0185039
X003937Y-0158465
X0037402Y-0138779
X0026575Y-0122047
X0023622Y-0100394
X0017717
Y-0094488
Y-0088583
Y-0082677
X0023622
Y-0088583
Y-0094488
X0029528
Y-0088583
Y-0082677
X0035433
Y-0088583
Y-0094488
Y-0100394
X0029528
X0041339
Y-0094488
Y-0088583
Y-0082677
X0050197Y-0074803
X0029528Y-0076772
X0023622
X0017717
X0011811
X0005906
Y-0082677
Y-0088583
Y-0094488
Y-0100394
X0011811
Y-0094488
Y-0088583
Y-0082677
X0008858Y-0113189
Y-0145669
X0064764Y-0130118
X0058071Y-0104331
X0063661Y-0089252
X0077756Y-0066929
X0098425Y-0069685
X0095472Y-0077756
X0097638Y-0091732
X0106299Y-0104331
X010315Y-0136024
X0100394Y-0149606
X0108268
X0102362Y-0161417
X009813
X0093898
X0090551Y-004626
X0055118Y-0041339
X0029528Y-0060532
X0114173Y-0068898
Y-0083661
X0144193Y-0096949
Y-013189
X0141732Y-0137795
X0120079Y-0129921
X0129921Y-004872
X0191732Y-0089764
T02
X0063878Y-0049409
X0083563
T03
X0151575Y-0154331
Y-0144331
Y-0134331
Y-0124331
Y-0114331
Y-0104331
T04
X0098425Y-0037559
X0111811
X0105118Y-0017559
X0118504
X013189
X0145276
X0158661
X0151969Y-0037559
X0165354
X0138583
X0125197
T05
X0033957Y-0011319
X0047736
X0067422Y-001122
X00812
X0184055Y-0067914
Y-0081693
T06
X0185039Y-0185039
X0011811
Y-0011811
X0185039
M30
